<svg xmlns="http://www.w3.org/2000/svg" width="512" height="512"><path d="m265 63 2.089.678c23.855 7.934 68.16 25.569 80.969 49.28 1.436 2.49 2.728 4.193 4.942 6.042 4.502 1.09 8.875.837 13.48.64q2.004-.037 4.008-.062c3.52-.054 7.038-.151 10.557-.262 6.248-.193 12.498-.328 18.748-.425l2.03-.034c27.9-.381 52.306 9.358 72.607 28.479C491.733 164.298 503.388 187.593 509 211l.906 3.55c3.826 17.056 4.295 35.96-1.906 52.45l-1.25 3.418C499.13 289.574 486.806 306.993 474 323l-2.484 3.113c-11.133 13.67-23.67 26.075-37.81 36.604-2.964 2.23-5.86 4.544-8.769 6.846C418.33 374.757 411.7 379.923 405 385l-2.113 1.606C336.423 436.946 259.642 458.263 177 461l-3.766.125c-23.545.67-44.183-2.155-62.297-18.625-21.65-22.903-36.13-64.039-35.277-95.16.986-19.872 11.438-36.113 23.34-51.34-1.507-3.764-3.65-5.585-6.812-8.062l-2.989-2.38-1.584-1.258c-2.75-2.214-5.43-4.51-8.115-6.8a686 686 0 0 0-11.937-9.937c-9.386-7.654-18.57-15.53-27.443-23.774a187 187 0 0 0-8.182-7.164C14.73 221.56 1.544 198.98-.236 175.95c-1.209-28.947 3.933-60.765 23.674-83.325A258 258 0 0 1 28 88l2.043-2.11C57.142 59.657 104.437 54.713 140 52l2.115-.175C182.99 48.504 225.858 50.235 265 63M59 153l-1 2a73 73 0 0 0 3.688 6.25l1.218 1.874c18.16 27.201 45.78 47.187 72.907 64.689l2.011 1.33c3.366 2.28 3.366 2.28 7.26 2.562 2.624-.965 4.047-2.497 6.041-4.455 18.472-17.043 41.137-29.228 62.87-41.554 8.414-4.772 16.755-9.645 25.005-14.696-27.818-25.66-111.77-26.603-147.695-26.114-10.967.54-22.325 3.567-32.305 8.114m372 49c1.698 4.688 4.062 8.919 6.5 13.25l1.223 2.219 1.183 2.11 1.073 1.918c.96 1.676.96 1.676 3.021 2.503a560 560 0 0 0 1.563-5.75l.878-3.234c.8-3.684.8-3.684-.441-7.016a57 57 0 0 0-7-3.25l-1.984-.812c-2.917-1.364-2.917-1.364-6.016-1.938m-111 23-2.32.833c-27.017 9.87-50.957 24.7-73.68 42.167a543 543 0 0 1-7 5c35.634 19.87 93.494 13.105 130.983 3.638 2.19-.692 4.06-1.429 6.017-2.638 2.815-8.446.209-18.356-3.426-26.187C364.545 237.041 354.226 226.425 343 221c-8.297-1.95-15.282 1.21-23 4M171 335c-14.467 13.34-22.21 31.94-25 51 43.025 1.519 84.573-10.289 123-29-2.738-2.258-4.856-3.448-8.324-4.176l-2.575-.56-2.788-.577q-3.017-.658-6.032-1.32l-3.156-.684c-17.31-3.782-34.344-8.341-51.335-13.344l-2.21-.645a666 666 0 0 1-4.089-1.21c-9.165-2.919-9.165-2.919-17.491.516" fill="#020100"/><path d="M454.762 150.02 457 152l2.645 2.324C467.44 161.62 472.814 169.733 478 179c.34.608.68 1.216 1.032 1.842 12.258 22.288 18.584 50.805 12.468 75.97-6.56 20.794-18.819 39.403-32.5 56.188l-2.258 2.875c-6.274 7.746-13.22 14.814-20.242 21.875l-1.468 1.484c-6.665 6.72-13.635 12.862-21.032 18.766a473 473 0 0 0-3.625 3.09C392.597 376.2 372.412 388.786 352 400l-2.047 1.148c-28.317 15.866-58.45 26.606-90.206 33.072a685 685 0 0 0-10.27 2.23c-3.004.673-6.01 1.336-9.017 1.998q-2.189.485-4.374.98c-2.042.461-4.087.907-6.133 1.35l-3.557.788c-4.949.632-8.914.555-12.958-2.503-3.266-4.104-5.862-8.503-8.438-13.063 0 3.108 1.356 5.628 2.5 8.5 2.5 6.278 2.5 6.278 2.5 8.5-7.444.985-14.873 1.544-22.373 1.887q-2.258.114-4.515.269c-12.562.855-12.562.855-16.4-1.648-1.514-1.77-2.61-3.466-3.712-5.508l-2-2v7c-4.01.393-6.212.59-9.5-1.875-4.449-5.158-8.606-10.952-11.5-17.125l.586 1.652c1.862 5.392 3.29 10.757 4.414 16.348-6.012-.267-10.38-.8-15-5-1.924-2.884-3.483-5.886-5-9l-1.812-3.562L122 422l-4 4c-19.617-20.887-31.035-51.042-30.344-79.3.31-6.802 1.482-12.464 4.344-18.7l1.438-3.172c3.16-6.352 6.995-12.036 11.312-17.64l1.43-1.871c1.2-1.502 2.503-2.918 3.82-4.317 3.47 0 4.601.743 7.527 2.52.875.527 1.75 1.055 2.65 1.6l2.76 1.692 2.749 1.659c11.05 6.709 11.05 6.709 12.142 10.111.994 7.607 1.395 15.125 1.484 22.793l.054 2.808c-.006 5.95-.814 10.415-3.366 15.817l-2 1-.779-3.289a2235 2235 0 0 0-2.901-12.037q-.631-2.607-1.248-5.218a966 966 0 0 0-1.81-7.483l-.55-2.37c-.57-2.414-.57-2.414-1.712-5.603l-3-1 .813 3.75c.73 3.601 1.338 7.202 1.847 10.84 1.124 8.024 2.285 15.817 4.59 23.598 1.66 5.816 2.15 9.916.75 15.812l-2 2c-4.378-7.79-6.874-15.711-9.187-24.312a4134 4134 0 0 0-2.043-7.426l-.888-3.283c-.812-2.744-1.77-5.344-2.882-7.979l.367 2.336A3821 3821 0 0 1 115 349.937l.578 3.674c.994 6.547 1.65 12.768 1.422 19.389h-2l-10-26c-3.176 7.94-3.5 17.78-.203 25.855 6.938 12.368 19.121 18.273 32.283 22.067 18.391 4.934 37.826 3.752 56.548 1.377q2.292-.29 4.588-.543c10.926-1.211 21.41-3.83 31.971-6.818l3.646-1.01c23.156-6.79 44.674-17.869 66.142-28.69 2.78-1.398 5.564-2.786 8.348-4.173C324.826 346.836 341.05 338.267 357 329q4.355-2.51 8.712-5.017C376.236 317.876 386.219 311.23 396 304l2.021-1.48c9.658-7.076 19.04-14.467 28.26-22.104a221 221 0 0 1 3.35-2.707c3.499-2.8 6.238-5.759 8.932-9.334l2.19-2.852c6.406-9.48 9.23-20.512 12.247-31.398l1.316-4.694c1.248-4.471 2.471-8.95 3.684-13.431l.942-3.477c3.913-14.549 3.913-14.549 4.058-29.523l-.29-2.625c-1.221-7.86-4.134-14.66-10.46-19.687A98 98 0 0 0 448 158l-1.848-1.113C425.53 146.267 396.578 147.2 375 154c-2.496.851-4.636 1.784-7 3-1.057 3.084-1.057 3.084-1 6 3.777-1.813 7.373-3.907 11-6l2 6 1.39-1.277 1.86-1.66 1.828-1.653c3.538-2.596 6.887-2.529 11.172-2.472l2.703.027L401 156c-.605 6.782-2.273 12.953-4.312 19.438l-.897 3.044-.904 2.89-.806 2.622C393 186 393 186 391.005 186.828c-2.005.172-2.005.172-3.966-.45-2.158-.619-2.158-.619-4.328.837l-2.336 1.722C376.175 192 376.175 192 374 192l.438-2.738.562-3.575.563-3.55c.506-3.104.506-3.104.437-6.137l-1.39 3.395-1.86 4.417-.91 2.237c-3.077 7.233-3.077 7.233-6.84 8.951-2.297-.172-2.297-.172-4.75-.75-2.574-.442-2.574-.442-5.25-.25-1.866 1.33-1.866 1.33-3.477 3.21-5.279 4.943-11.3 6.295-18.148 8.165a875 875 0 0 0-7.812 2.309l-1.96.583c-15.7 4.728-30.353 11.763-44.64 19.73-2.268 1.159-4.589 2.087-6.963 3.003l.184-2.016q.41-4.555.816-9.109c.095-1.047.19-2.093.29-3.172.435-4.915.847-9.763.71-14.703q-.974 2.591-1.937 5.188l-1.09 2.917c-1.6 4.76-1.969 8.642-1.858 13.67.042 9.01.042 9.01-3.592 12.827C258.52 241 258.52 241 256 241c-.203-9.764.36-19.173 1.5-28.875l.434-3.855q.523-4.636 1.066-9.27h-2l-.48 3.715a653 653 0 0 1-4.832 30.785l-.534 3.234c-1.59 8.356-1.59 8.356-5.197 11.485C243 250 243 250 241 250c-.076-4.644-.024-9.135.5-13.75.564-5.668.613-11.31.625-17l.014-2.726c-.011-4.948-.3-9.646-1.139-14.524-23.243 4.784-52.373 18.56-66 39l8 1-2 12q-4.846-2.151-9.687-4.312l-2.764-1.225c-4.34-1.941-8.552-3.863-12.549-6.463 4.324-5.417 8.809-9.423 14.438-13.437l2.484-1.799A1279 1279 0 0 1 181 221l2.825-2.01c34.924-24.775 71.467-45.293 110.684-62.452a1129 1129 0 0 0 10.542-4.718c45.576-20.593 106.415-37.656 149.71-1.8" fill="#F9AE3A"/><path d="M169.334 66.705q3.906-.017 7.81-.062c56.832-.64 113.395 15.718 156.168 54.517C335 123 335 123 336 126c-3.598 3.442-8.07 4.92-13 5-2.5-1.937-2.5-1.937-5-5-24.817-22.54-62.199-33.99-95-36v2l2.92.324c4.615.665 8.935 2.05 13.361 3.485l2.676.855q4.274 1.376 8.543 2.774l2.936.957C276.71 108.012 300.74 116.352 320 132c-2.636 2.07-5.215 3.723-8.227 5.189l-2.5 1.224-2.683 1.298-2.796 1.364a3255 3255 0 0 1-5.863 2.849q-4.44 2.154-8.874 4.318-2.858 1.392-5.717 2.781l-2.64 1.286a804 804 0 0 1-5.095 2.446 349 349 0 0 0-5.52 2.702l-2.919 1.417-2.635 1.305c-4.831 1.567-8.838-.612-13.397-2.399C222.85 146.755 192.664 141.853 163 136c-1.39-4.17-.01-5.607 1.93-9.496l.938-1.909a922 922 0 0 1 3.007-6.032q1.498-3.009 2.985-6.022c.903-1.827 1.814-3.65 2.725-5.472 1.114-2.415 1.924-4.476 2.415-7.069-9.652 8.596-14.834 19.342-20 31a251 251 0 0 1-2 4h-6c-1.173-1.604-1.173-1.604-2-4 1.01-2.945 1.01-2.945 2.762-6.34l.928-1.83c.985-1.93 1.99-3.849 2.997-5.767q.99-1.932 1.975-3.866c4.664-9.104 4.664-9.104 7.052-12.977 1.453-2.08 1.453-2.08 1.286-4.22h-2c-1.228 1.595-1.228 1.595-2.398 3.707l-1.437 2.442-1.54 2.664q-1.611 2.738-3.227 5.472l-1.684 2.852c-2.745 4.586-5.598 9.102-8.464 13.613l-1.591 2.507Q139.832 132.131 138 135l-4-2c2.272-7.09 4.92-13.979 7.746-20.865l.926-2.319.847-2.08c.715-1.826.715-1.826-.519-3.736q-2.659 4.811-5.313 9.625l-1.513 2.738c-2.037 3.697-4.048 7.382-5.916 11.168-1.436 2.819-2.446 4.023-5.258 5.469-3.25.188-3.25.188-6 0 2.615-8.13 5.641-16.088 8.687-24.062l1.55-4.069Q131.115 99.934 133 95h-3l-.817 2.603c-1.828 5.25-4.304 10.167-6.723 15.166-.897 1.855-1.785 3.715-2.673 5.575l-1.72 3.57-1.565 3.249c-1.347 2.545-2.529 4.74-4.502 6.837-3.688.25-3.688.25-7 0 1.258-7.29 3.211-14.14 5.625-21.125l.984-2.898A1557 1557 0 0 1 114 101h-3l-.498 1.604c-1.959 6.109-4.363 11.927-7.002 17.771l-1.184 2.691-1.16 2.582-1.037 2.318C98.94 130.108 97.951 131.522 96 133c-3.688-.312-3.688-.312-7-1 2.355-9.565 5.65-18.75 9-28l-1-1-1.828 3.473-2.422 4.59-1.2 2.279C82.494 130.492 82.494 130.492 75 134c2.378-10.29 5.618-20.208 9.035-30.193l1.2-3.616 1.1-3.243c.696-3.085.534-4.94-.335-7.948-7.786 3.024-15.074 6.304-22 11l-2.117 1.375C54.675 106.76 51.473 114.962 48 123l-1.168 2.594c-3.969 10.583-3.344 25.12.773 35.508 10.939 22.734 28.335 41.247 48.356 56.356a894 894 0 0 1 6.535 5.007c64.138 49.141 147.596 86.16 230.24 75.357 27.769-4.1 62.683-14.331 81.053-37.033 5.418-7.606 10.72-18.191 9.211-27.789-2.364-7.5-5.438-13.438-11-19l-2-1c.087 2.418.194 4.833.312 7.25l.069 2.066c.225 4.222.838 6.52 3.619 9.684.75 3.125.75 3.125 0 7-2.68 3.646-5.837 6.773-9 10a867 867 0 0 0-6.176 7.188c-1.844 1.831-3.446 2.804-5.824 3.812 1.59-5.361 3.19-10.708 5-16l-2.875 2.5C392.25 249 392.25 249 390 249a579 579 0 0 1-4-7.5l-1.156-2.11c-2.633-5.077-3.256-8.678-2.844-14.39l-3.438.875c-4.936.628-7.509-1.3-11.375-4.172L365 220a643 643 0 0 0-4.063-2.875L358 215c3.454-2.96 7.28-4.46 11.5-6l2.16-.794c10.56-3.806 21.18-5.998 32.34-7.206l3.309-.437c7.387-.59 7.387-.59 10.886 2.167 7.076 8.601 8.597 17.998 9.575 28.774q.248 2.676.539 5.347c.319 3.047.574 6.095.816 9.149l.325 2.93c.271 4.184.365 6.92-2.114 10.418-2.022 2.04-4.095 3.857-6.336 5.652a692 692 0 0 0-3.688 3.313A2911 2911 0 0 1 413 272l-2.762 2.426c-23.48 20.478-50.77 36.98-79.176 49.699l-2.064.934c-1.64.71-3.317 1.335-4.998 1.941l-2-1 1.086-1.529q2.427-3.42 4.851-6.846l1.71-2.406 1.63-2.305 1.508-2.126c1.263-1.774 1.263-1.774 2.215-3.788-3.639 2.027-6.465 4.218-9.398 7.168l-2.454 2.459-2.523 2.56-2.5 2.502c-4.381 4.413-8.595 8.912-12.655 13.62-7.131 8.2-7.131 8.2-11.533 9.125-1.937.004-1.937.004-4.937-.434 0-4.832.832-5.364 4.062-8.75l2.489-2.66L298 330c4.351-4.798 8.33-9.66 12-15-10.74 6.04-19.629 16.045-27.52 25.398-2.48 2.683-3.557 2.606-7.355 2.79-3.199-.03-5.401-.372-8.125-2.188 1.37-3.995 3.257-6.8 6-10-4.164 1.93-7.748 4.154-11.387 6.914-2.893 1.947-5.423 2.204-8.8 2.149L249 340c0-4.294 2.599-6.088 5.437-9 4.025-3.999 4.025-3.999 6.563-9-5.48 3.463-10.414 7.067-15.078 11.582-2.353 1.736-4.018 2.173-6.922 2.418-2.54-.703-4.615-1.83-7-3 4.143-6.429 4.143-6.429 7-9-3.135 1.353-4.636 2.75-6.75 5.375-1.756 1.517-1.756 1.517-4.25 2.625a47.5 47.5 0 0 1-7.297-1.547l-2.134-.58A461 461 0 0 1 212 328l-1.995-.568a560 560 0 0 1-13.505-4.057l-2.074-.646C175.572 316.816 157.441 309.299 140 300l-1.965-1.025C127.215 293.31 117.56 286.586 108 279l-2.957-2.344c-5.717-4.62-11.283-9.417-16.852-14.215A489 489 0 0 0 77.5 253.5C66.678 244.696 56.171 235.548 46 226l-2.43-2.23c-15.079-14.323-25.145-33.612-26.195-54.502-.32-14.45 3.056-27.962 6.728-41.834a333 333 0 0 0 2.264-9.25c2.577-10.952 5.476-20.069 15.145-26.66 39.037-23.901 83.384-24.683 127.822-24.82" fill="#F4911D"/><path d="M239.195 204.398 241 205l-.55 4.223-.364 2.788q-.403 3.085-.81 6.17a959 959 0 0 0-2.003 16.08c-2.885 24.745-2.885 24.745-9.96 31.989-3.118 2.442-5.112 3.157-9.063 2.812-3.046-.564-5.527-1.596-8.25-3.062-.349-12.439.726-24.635 2-37l-2 1c-.74 2.84-.74 2.84-1.254 6.3l-.65 3.901-.659 4.111q-.654 3.995-1.316 7.989l-.58 3.599c-.42 2.41-.9 4.741-1.541 7.1-2.666.216-4.44.309-6.813-1-1.519-2.559-1.284-4.617-1.226-7.53.028-1.752.014-3.505-.03-5.257-.298-18.483-.298-18.483 5.112-24.477 5.239-4.011 11.104-6.71 17.106-9.385 4.958-2.35 9.395-5.476 13.926-8.548 4.46-2.887 4.46-2.887 7.12-2.405" fill="#F6AC39"/><path d="M82 97c-.645 4.77-1.938 9.147-3.547 13.664l-.767 2.165a1242 1242 0 0 1-1.614 4.503 735 735 0 0 0-2.416 6.879 2436 2436 0 0 1-1.578 4.39l-.708 2.068C69.742 135.08 67.965 137.47 64 140c-2.812.75-2.812.75-5 1 1.904-7.587 4.327-14.83 7.11-22.129 1.224-2.779 1.224-2.779-.11-4.871l-.978 2.28a3793 3793 0 0 1-4.397 10.157l-1.54 3.588-1.483 3.409-1.365 3.158C55 139 55 139 53 140c-.51-11.536-.386-19.785 7.125-29.125C65.032 105.589 74.28 97 82 97" fill="#F08F1D"/><path d="m418 157 18 4c-.703 4.924-1.456 9.065-2.875 13.75l-.992 3.36c-1.086 2.77-1.698 4.22-4.133 5.89h-4c.499-5.369 1.022-10.692 2-16l-.77 1.54q-1.073 2.145-2.156 4.288a149 149 0 0 0-2.574 5.547c-1.625 2.843-2.406 3.687-5.5 4.625h-4c1.615-9.247 4.292-18.02 7-27m-5-3c1.334 4.002.333 7.085-.625 11.063l-.55 2.307c-1.712 6.8-3.907 15.26-9.825 19.63-2.1-.426-2.1-.426-4-1 .58-6.318 1.599-12.253 3.25-18.375l.582-2.402c1.544-5.738 1.544-5.738 4.695-8.188L409 156l2.313-1.187zM141 318c4.41.666 8.266 2.266 12.313 4.063l1.955.853q2.368 1.037 4.732 2.084c-.447 4.419-3.453 7.009-6.375 10.063l-1.5 1.603c-2.333 2.486-4.693 4.944-7.125 7.334-1.705-8.64-3.386-17.198-4-26" fill="#F3AA39"/><path d="M440 165c3.875 1.75 3.875 1.75 5 4 .07 1.54.085 3.083.063 4.625l-.028 2.477L445 178l5-1v14c-4-1-4-1-6-4a75 75 0 0 1-1-5l-4 4c-2.481-3.176-3.01-4.72-2.875-8.812.729-4.298 2.223-8.165 3.875-12.188" fill="#EEA738"/><path d="M229 225c1.314 3.784.803 6.998.293 10.926l-.259 2.017a842 842 0 0 1-.558 4.219 893 893 0 0 0-.83 6.399c-.826 6.315-1.781 12.345-3.646 18.439h-1c-2.027-9.122-1.298-17.814.813-26.812l.5-2.136c1.148-4.584 2.726-8.754 4.687-13.052" fill="#191105"/><path d="m193 233 2 1c-.446 3.273-.909 6.543-1.375 9.813l-.383 2.814-.39 2.705-.35 2.491C192 254 192 254 190 257c-6.18-11.17-6.18-11.17-5-16 2.19-3.208 4.486-6.243 8-8" fill="#F0A838"/><path d="M186 416h2q1.506 3.435 3 6.875l.867 1.973C194 429.773 194 429.773 194 432h-3a1312 1312 0 0 1-2.5-6.312l-1.406-3.551C186 419 186 419 186 416" fill="#120C04"/><path d="M236 202h5l2 8-3 1 1-6-7 1z" fill="#171005"/><path d="M172 420c2.724 2.353 3.814 4.625 5 8h-3c-1.765-3.088-2-4.233-2-8" fill="#251A08"/><path d="M154 422h3l2 8c-2.799-2.528-4.458-4.204-5-8" fill="#1D1406"/></svg>