<svg xmlns="http://www.w3.org/2000/svg" viewBox="0 0 695.54 585.83"><defs><style>.cls-1{opacity:0.5;}.cls-2{fill:#f15a24;}.cls-3{font-size:100px;}.cls-3,.cls-5,.cls-6{fill:#0aa4ff;font-family:Bluesty-Personal-Use, Bluesty Personal Use;}.cls-4{letter-spacing:0.04em;}.cls-5{font-size:47px;}.cls-6{font-size:86px;}.cls-7{letter-spacing:-0.01em;}.cls-8{letter-spacing:-0.01em;}</style></defs><g id="Layer_2" data-name="Layer 2"><g id="Layer_1-2" data-name="Layer 1"><g class="cls-1"><path class="cls-2" d="M206.58,19v6L537.94,50.7a.19.19,0,0,1,.15.09L678,316.51a.21.21,0,0,1,0,.2L487.92,557.08a.21.21,0,0,1-.15.07h0L156.41,531.48a.18.18,0,0,1-.14-.1L16.33,265.66a.17.17,0,0,1,0-.19L206.44,25.1a.19.19,0,0,1,.14-.07V19m0,0a6.19,6.19,0,0,0-4.85,2.35L11.64,261.75a6.19,6.19,0,0,0-.62,6.71L151,534.18a6.18,6.18,0,0,0,5,3.28L487.3,563.13l.48,0a6.16,6.16,0,0,0,4.84-2.35l190.1-240.37a6.19,6.19,0,0,0,.62-6.71L543.39,48a6.15,6.15,0,0,0-5-3.28L207.06,19.05l-.48,0Z"/></g><g class="cls-1"><path class="cls-2" d="M466.73,6a.17.17,0,0,1,.12.06L689.49,243.72a.17.17,0,0,1,0,.19L571.13,530.3a.21.21,0,0,1-.14.1L228.81,579.83a.2.2,0,0,1-.13-.06L6.05,342.1a.17.17,0,0,1,0-.18L124.41,55.53a.17.17,0,0,1,.14-.1L466.7,6h0m0-6a6.62,6.62,0,0,0-.88.06L123.69,49.49a6.16,6.16,0,0,0-4.82,3.75L.47,339.62a6.18,6.18,0,0,0,1.2,6.59L224.3,583.87a6.19,6.19,0,0,0,4.51,2,6.65,6.65,0,0,0,.89-.06l342.14-49.43a6.18,6.18,0,0,0,4.83-3.75l118.4-286.38a6.21,6.21,0,0,0-1.2-6.59L471.23,2A6.18,6.18,0,0,0,466.72,0Z"/></g><text class="cls-3" transform="translate(176.18 204.84) rotate(-2.39)">B<tspan class="cls-4" x="105.4" y="0">r</tspan><tspan x="148.2" y="0">una</tspan></text><text class="cls-5" transform="translate(330.92 303.24) rotate(-2.39)">&amp;</text><text class="cls-6" transform="translate(176.23 420.16) rotate(-2.39)">Ge<tspan class="cls-7" x="105.09" y="0">o</tspan><tspan class="cls-8" x="145.85" y="0">v</tspan><tspan x="185.76" y="0">anne</tspan></text></g></g></svg>